<svg xmlns="http://www.w3.org/2000/svg" enable-background="new 0 0 5100 5000" viewBox="0 0 5100 5000"><path fill="#9ad6c4" d="M4413.292,2438.094c0.161,1032.228-830.212,1867.325-1852.007,1883.135     c-1043.287,19.832-1916.124-827.033-1914.866-1883.137C723.154-50.994,4336.68-51.35,4413.292,2438.094z"/><path fill="#f7bead" d="M3814.61,3814.861c-272.383-146.001-718.841-274.716-1228.104-281.841       c-759.061-10.62-1063.04,140.827-1340.544,281.672c345.357,322.15,810.173,516.146,1315.324,506.544       C3044.437,4313.754,3484.624,4122.931,3814.61,3814.861z"/><path fill="#3cb08e" d="M2571.492,3506.826c-566.051,3.444-1013.432,84.503-1349.561,285.438        c347.634,335.688,822.481,538.795,1339.355,528.972c486.508-7.533,929.357-201.071,1260.087-512.906        C3505.358,3611.704,3096.844,3544.438,2571.492,3506.826z"/><path fill="#29a57f" d="M3126.315,3780.659c132.426-97.872,298.76-144.509,298.76-144.509        s-344.894-241.244-891.792-250.235c-534.657-8.788-954.518,248.878-954.518,248.878l303.79,257.53l-145.764,195.743        c202.47,48.045,450.583,150.514,618.039,225.449c67.945,6.209,136.781,9.042,206.457,7.719        c34.982-0.543,69.682-2.256,104.189-4.683c233.088-144.984,639.326-328.614,639.326-328.614        C3224.195,3890.067,3126.315,3780.659,3126.315,3780.659z"/><path fill="#de9681" d="M1967.26,3611.405c33.949,96.959,116.927,379.415,554.506,681.689        c0,0,478.323-294.34,564.687-680.099C3086.453,3612.995,2460.209,3398.848,1967.26,3611.405z"/><path fill="#de9681" d="M2182.946,3074.039c0,0,0,413.084-74.584,590.94        c-74.585,177.855,246.703,309.813,441.771,304.076c195.067-5.737,464.265-126.618,418.822-281.127        c-57.373-195.068-74.585-309.813-86.06-613.889C2869.438,2717.426,2246.056,2660.954,2182.946,3074.039z"/><path fill="#d38475" d="M2894.51,3289.028c-6.278-68.826-7.827-114.588-11.616-214.99       c-13.457-356.612-636.838-413.084-699.947,0c0,0,3.382,59.449-6.621,188.972c114.804,135.932,239.558,230.315,345.968,230.315       C2654.208,3493.325,2781.028,3408.017,2894.51,3289.028z"/><path fill="#de9681" d="M2535.789,1321.299c0,0-713.165-40.206-679.868,806.088         c34.424,874.935,410.151,1233.515,665.525,1233.515c332.762,0,656.918-433.165,720.028-1024.104         C3304.585,1745.858,3029.196,1315.562,2535.789,1321.299z"/><path fill="#121d3f" d="M2409.228,2212.518c0,0,32.463-1.601,35.167,21.631c2.999,25.772,6.611,38.181-8.478,44.253          c-15.086,6.071-163.677,1.635-244.247,4.566c-81.51,2.965-117.051,8.988-122.377,0.813          c-5.327-8.174,63.333-52.306,145.444-59.563C2310.413,2215.763,2308.214,2215.338,2409.228,2212.518z"/><path fill="#121d3f" d="M2676.12,2212.518c0,0-32.463-1.601-35.168,21.631c-2.999,25.772-6.61,38.181,8.478,44.253          c15.088,6.071,163.679,1.635,244.247,4.566c81.51,2.965,117.05,8.988,122.377,0.813          c5.327-8.174-63.333-52.306-145.442-59.563C2774.935,2215.763,2777.133,2215.338,2676.12,2212.518z"/><path fill="#d38475" d="M2063.792,2651.316c0,0,25.254-63.241,161.542-61.341          c110.79,1.544,194.132,19.574,193.128,97.162C2425.801,2787.776,2005.348,2807.011,2063.792,2651.316z"/><path fill="#d38475" d="M2640.983,2651.316c0,0,25.255-63.241,161.543-61.341          c110.79,1.544,194.131,19.574,193.126,97.162C3002.992,2787.776,2582.54,2807.011,2640.983,2651.316z"/><path fill="#c46f5e" d="M2585.917,2770.641c-3.176-7.71-11.185-12.691-20.098-11.791          c-26.595,2.272-76.614,2.42-97.465-7.4c-0.454-0.156-0.907-0.451-1.209-0.605c0.303-4.833,4.08-16.624,7.404-27.05          c1.66-4.988,3.475-10.573,5.291-16.624c60.59-197.653,71.625-296.929,72.079-301.157          c1.206-11.039-6.804-21.006-17.985-22.217c-11.031-1.055-21.003,6.951-22.213,17.981c0,0.907-11.182,100.339-70.416,293.61          c-1.815,5.74-3.627,11.178-5.14,16.018c-8.611,26.747-17.527,54.1,5.745,70.87c2.719,2.265,5.74,4.08,9.367,5.74          c21.611,10.279,55.154,12.543,81.147,12.543c18.738,0,33.547-1.211,37.021-1.513c11.031-1.055,19.344-10.875,18.284-21.914          C2587.578,2774.868,2586.973,2772.604,2585.917,2770.641z"/><path fill="#d38475" d="M2595.465,3090.232c-1.77,0-3.57-0.32-5.32-0.992c-42.558-16.367-95.218,0.11-95.749,0.279          c-7.769,2.482-16.137-1.798-18.631-9.588c-2.502-7.784,1.771-16.119,9.548-18.63c2.546-0.821,63.012-19.903,115.472,0.272          c7.645,2.94,11.452,11.513,8.515,19.154C2607.035,3086.617,2601.42,3090.232,2595.465,3090.232z"/><path fill="#c46f5e" d="M2547.115,3005.285c-135.925,0-249.162-33.47-253.921-34.895          c-8.817-2.643-13.82-11.933-11.186-20.753c2.649-8.815,11.931-13.834,20.756-11.192          c1.122,0.334,113.524,33.491,244.351,33.491c130.841,0,244.13-33.167,245.258-33.502          c8.891-2.629,18.107,2.418,20.734,11.237c2.619,8.825-2.406,18.104-11.23,20.729          C2797.088,2971.824,2683.01,3005.285,2547.115,3005.285z"/><path fill="#121d3f" d="M2853.612,2495.486c-3.028,0-6.071-1.041-8.555-3.162           c-82.93-70.673-149.539-3.748-152.336-0.86c-5.073,5.253-13.42,5.376-18.663,0.292c-5.235-5.063-5.368-13.42-0.294-18.655           c0.857-0.89,86.868-87.435,188.415-0.861c5.551,4.723,6.213,13.061,1.481,18.608           C2861.052,2493.905,2857.342,2495.486,2853.612,2495.486z"/><path fill="#121d3f" d="M2232.686,2495.486c-3.729,0-7.44-1.581-10.046-4.638c-4.733-5.546-4.07-13.885,1.48-18.608           c101.534-86.594,187.56-0.029,188.416,0.861c5.073,5.235,4.94,13.592-0.293,18.655c-5.235,5.083-13.573,4.941-18.65-0.274           c-3.049-3.084-70.044-69.339-152.35,0.842C2238.758,2494.444,2235.715,2495.486,2232.686,2495.486z"/><path fill="#121d3f" d="M3294.301,2340.949c0,0,31.502-349.116-72.882-641.777       c-104.384-292.662-387.664-417.634-558.853-394.406c0,0-556.526-132.722-761.119,262.139       c-204.592,394.861-87.904,842.484-87.904,842.484l107.557,149.034c0,0,19.204-307.513,103.582-426.094       c158.664-222.981,630.19-114.201,720.378-341.888c0,0,363.709,276.478,426.951,694.296L3294.301,2340.949z"/><g><path fill="#de9681" d="M1936.271,2421.457c-6.988-51.299-57.073-93.271-93.708-103.479        c-23.679-6.598-51.391-4.847-78.438,18.819c-68.847,60.241,77.453,413.084,206.542,378.66L1936.271,2421.457z"/><path fill="#de9681" d="M3163.615,2438.098c9.911-56.294,58.169-109.911,94.804-120.119        c23.679-6.598,51.391-4.847,78.438,18.819c68.847,60.241-77.453,413.084-206.542,378.66L3163.615,2438.098z"/></g><g><path fill="#e6eded" d="M2536.481,4442.754c-26.155,0-52.217-0.53-78.382-1.599    c-163.315-5.253-326.354-31.025-484.577-76.607c-274.446-78.425-534.604-219.223-752.322-407.221    c-1.576-1.269-3.341-2.745-5.228-4.439c-327.623-283.622-549.421-649.208-641.427-1057.329    c-85.628-379.83-57.47-778.648,81.42-1153.339c138.753-374.331,377.029-694.411,689.059-925.64    c336.59-249.426,745.833-381.913,1183.489-383.134c535.715-0.004,1039.075,208.509,1417.69,587.125    c378.619,378.619,587.128,881.983,587.128,1417.367c0,573.13-246.028,1119.834-675.127,1500.28    c-1.846,1.694-3.757,3.36-5.727,4.989C3492.399,4263.019,3016.819,4442.727,2536.481,4442.754z M1373.9,3769.346l3.639,3.067    c191.666,165.993,420.846,290.265,662.761,359.396c139.388,40.16,282.674,62.79,426.137,67.351l1.131,0.048    c445.819,18.295,892.722-141.659,1226.298-438.985l4.931-4.269c376.532-334.476,592.405-814.671,592.405-1318.018    c0-470.711-183.328-913.269-516.214-1246.154c-332.88-332.881-775.434-516.209-1246.141-516.209    C1629.037,678.091,1088.609,1271.693,883,1826.38C677.057,2381.963,697.983,3183.893,1373.9,3769.346z"/><ellipse cx="3973.645" cy="3966.255" fill="#73e09e" rx="479.238" ry="479.239" transform="rotate(-45.001 3973.618 3966.32)"/><path fill="#e6eded" d="M3973.645,4566.555c-331.011,0-600.303-269.292-600.303-600.303s269.292-600.303,600.303-600.303     c331.012,0,600.304,269.292,600.304,600.303S4304.657,4566.555,3973.645,4566.555z M3973.645,3608.076     c-197.496,0-358.176,160.674-358.176,358.176s160.679,358.176,358.176,358.176c197.496,0,358.175-160.674,358.175-358.176     S4171.141,3608.076,3973.645,3608.076z"/></g></svg>