<svg xmlns="http://www.w3.org/2000/svg" enable-background="new 0 0 5100 5000" viewBox="0 0 5100 5000"><path fill="#c7dbdb" d="M4398.96,2437.931c0.188,946.109-700.95,1730.127-1613.244,1858.267    C1686.111,4464.62,633.758,3575.125,645.981,2437.921C731.426-45.418,4313.307-45.919,4398.96,2437.931z"/><path fill="#e67a38" d="M2875.858,2624.995c0,0,109.813,476.081,146.492,665.33       c104.039,536.793,345.557,742.826,345.557,742.826L1795.95,3981.29c0,0,264.44-555.301,253.623-1030.885       C2041.175,2581.131,2875.858,2624.995,2875.858,2624.995z"/><path fill="#f5ae9a" d="M2154.497,3215.918c0,0,36.347,290.778-30.29,569.442        c-48.419,202.475,205.969,278.663,381.647,290.778c175.678,12.117,383.725-97.714,417.993-260.489        c24.232-115.1-72.694-90.869-48.462-611.847C2897.404,2730.404,2142.38,2719.171,2154.497,3215.918z"/><path fill="#eda48e" d="M2517.97,3647.676c127.322,0,249.606-75.526,355.215-197.809        c-2.629-64.941-2.49-145.262,2.201-246.065c22.018-473.399-733.005-484.63-720.891,12.116c0,0,13.717,110.048,8.801,259.551        C2267.443,3586.745,2389.397,3647.676,2517.97,3647.676z"/><path fill="#f5ae9a" d="M2511.911,1501.536c0,0-666.368-30.29-672.425,726.946        c-6.057,757.238,308.953,1260.042,678.484,1260.042c369.53,0,696.658-636.077,696.658-1205.519        S2887.5,1501.536,2511.911,1501.536z"/><path fill="#d6682b" d="M2376.659,2366.536c0,0,30.759-1.517,33.321,20.496c2.843,24.42,6.264,36.177-8.031,41.93          c-14.295,5.754-155.085,1.55-231.425,4.327c-77.231,2.809-110.906,8.516-115.952,0.771          c-5.048-7.745,60.008-49.559,137.807-56.435C2283.031,2369.611,2280.948,2369.209,2376.659,2366.536z"/><path fill="#d6682b" d="M2629.541,2366.536c0,0-30.76-1.517-33.322,20.496c-2.842,24.42-6.263,36.177,8.033,41.93          c14.296,5.754,155.085,1.55,231.424,4.327c77.231,2.809,110.906,8.516,115.953,0.771          c5.047-7.745-60.008-49.559-137.808-56.435C2723.168,2369.611,2725.251,2369.209,2629.541,2366.536z"/><path fill="#eda48e" d="M2065.809,2782.299c0,0,23.929-59.921,153.061-58.12          c104.975,1.462,183.941,18.546,182.988,92.059C2408.812,2911.596,2010.433,2929.82,2065.809,2782.299z"/><path fill="#eda48e" d="M2596.248,2782.299c0,0,23.929-59.921,153.062-58.12          c104.973,1.462,183.94,18.546,182.988,92.059C2939.252,2911.596,2540.873,2929.82,2596.248,2782.299z"/><path fill="#e08c79" d="M2540.691,2890.169c-3.782-4.239-9.379-6.507-15.58-6.049          c-25.258,2.268-72.602,2.416-92.415-6.956c-0.451-0.156-0.755-0.311-1.057-0.458c0.151-4.69,3.781-15.878,6.956-25.716          c1.514-4.837,3.176-9.978,4.994-15.731c57.322-187.246,67.91-281.475,68.214-285.257          c1.207-10.583-6.505-19.962-16.943-21.174c-10.586-1.055-19.964,6.507-21.021,17.09          c-0.151,0.908-10.74,94.99-66.854,278.153c-1.664,5.443-3.329,10.583-4.84,15.125c-8.017,24.652-16.185,50.065,4.083,66.401          c3.026,2.267,6.353,4.387,10.286,6.196c20.569,9.682,52.332,11.95,76.834,11.95c17.849,0,31.914-1.204,35.089-1.514          c10.589-0.901,18.303-10.28,17.397-20.716C2545.38,2897.126,2543.564,2893.189,2540.691,2890.169z"/><path fill="#121d3f" d="M2823.84,2583.642c0,44.12-27.516,79.886-61.458,79.886s-61.459-35.767-61.459-79.886          c0-44.119,27.517-79.885,61.459-79.885S2823.84,2539.523,2823.84,2583.642z"/><path fill="#121d3f" d="M2325.782,2583.642c0,44.12-27.517,79.886-61.459,79.886          c-33.942,0-61.458-35.767-61.458-79.886c0-44.119,27.517-79.885,61.458-79.885          C2298.266,2503.758,2325.782,2539.523,2325.782,2583.642z"/><path fill="#eda48e" d="M2546.758,3195.44c-1.612,0-3.253-0.287-4.847-0.901           c-38.992-14.993-86.765,0.09-87.236,0.245c-7.12,2.282-14.71-1.612-17.002-8.709c-2.292-7.095,1.612-14.71,8.703-16.997           c2.33-0.755,57.448-18.12,105.229,0.245c6.959,2.678,10.439,10.491,7.761,17.455           C2557.3,3192.148,2552.181,3195.44,2546.758,3195.44z"/><path fill="#e08c79" d="M2502.693,3118.034c-123.852,0-227.053-30.501-231.39-31.797           c-8.035-2.409-12.599-10.872-10.185-18.911c2.404-8.039,10.863-12.613,18.907-10.199           c1.019,0.302,103.456,30.516,222.668,30.516c119.467,0,222.469-30.218,223.498-30.525           c8.034-2.395,16.493,2.193,18.887,10.232c2.396,8.044-2.187,16.507-10.231,18.897           C2730.48,3087.543,2626.544,3118.034,2502.693,3118.034z"/><g><path fill="#d6682b" d="M3022.958,1545.122c0,0,67.572-248.995-262.283-361.714         c-441.654-150.922-690.086,154.219-691.335,317.961C2068.09,1665.112,3022.958,1545.122,3022.958,1545.122z"/><ellipse cx="2563.983" cy="1371.675" fill="#f7b36f" rx="244.962" ry="129.695"/><path fill="#e67a38" d="M2540.873,1876.747c0,0,162.576,42.989,268.073,253.634s346.061,216.912,346.061,468.113         c0,0,123.411-159.005,125.537-369.538c2.147-212.564-38.648-865.288-724.553-780.185c0,0-437.99-132.041-676.308,235.098         c-238.318,367.139-217.17,801.668,24.738,1109.421c0,0-53.357-125.274,1.026-243.104         c38.646-83.733,30.036-178.511,109.498-222.215c128.84-70.862,104.231-162.859,261.669-244.727         C2437.664,1999.498,2540.873,1876.747,2540.873,1876.747z"/><path fill="#d6682b" d="M1852.744,2309.722c-1.443-0.13-2.877-0.589-4.194-1.402          c-4.526-2.797-5.927-8.735-3.13-13.262c15.757-25.497,40.078-52.167,65.827-80.402          c41.955-46.007,85.338-93.581,100.135-143.658c1.329-4.499,2.636-9.024,3.95-13.572          c23.336-80.808,49.786-172.398,240.295-247.108c190.978-74.895,243.82-178.711,244.332-179.751          c2.35-4.774,8.122-6.743,12.899-4.394c4.776,2.349,6.742,8.124,4.394,12.899c-2.222,4.52-56.719,111.588-254.588,189.186          c-181.667,71.242-205.636,154.244-228.817,234.512c-1.325,4.588-2.643,9.152-3.984,13.689          c-16.053,54.327-62.978,105.783-104.377,151.182c-25.127,27.552-48.86,53.578-63.674,77.549          C1859.828,2308.4,1856.264,2310.039,1852.744,2309.722z"/><path fill="#d6682b" d="M1792.695,2252.114c-0.403-0.016-0.809-0.059-1.218-0.127          c-5.247-0.882-8.786-5.851-7.904-11.1c26.051-154.99,71.129-288.161,133.979-395.812          c50.486-86.47,112.487-156.777,184.282-208.966c122.742-89.221,230.177-94.406,234.691-94.583          c5.307-0.225,9.797,3.933,10.006,9.251c0.208,5.314-3.927,9.791-9.24,10.005c-1.057,0.044-107.035,5.384-225.173,91.68          c-109.26,79.81-251.654,247.236-309.54,591.62C1801.764,2248.922,1797.474,2252.309,1792.695,2252.114z"/><path fill="#d6682b" d="M3115.622,2253.041c-4.22,0-8.094-2.794-9.28-7.058          c-24.362-87.7-56.548-137.963-93.82-196.163c-27.852-43.493-56.653-88.466-86.059-154.63          c-66.416-149.436-259.339-234.71-261.28-235.553c-4.881-2.122-7.116-7.798-4.994-12.678          c2.117-4.881,7.793-7.118,12.677-4.996c2.054,0.893,50.954,22.333,109.061,63.224          c53.887,37.92,125.761,100.307,162.146,182.177c28.812,64.828,57.213,109.176,84.678,152.065          c36.524,57.033,71.022,110.904,96.16,201.396c1.423,5.128-1.579,10.438-6.707,11.863          C3117.344,2252.926,3116.476,2253.041,3115.622,2253.041z"/><path fill="#d6682b" d="M3204.979,2077.141c-4.698,0-8.809-3.439-9.52-8.225          c-34.976-236.094-161.83-366.095-262.091-433.576c-108.659-73.136-209.905-90.646-210.914-90.814          c-5.251-0.875-8.795-5.84-7.921-11.089c0.875-5.25,5.848-8.796,11.087-7.921c4.293,0.716,106.415,18.389,218.508,93.837          c65.861,44.328,121.28,99.475,164.717,163.909c54.238,80.453,89.792,175.611,105.678,282.83          c0.779,5.264-2.856,10.165-8.12,10.945C3205.925,2077.107,3205.45,2077.141,3204.979,2077.141z"/></g><g><path fill="#f5ae9a" d="M1888.378,2452.299c-12.562-49.035-62.377-116.174-135.933-81.135         c-44.994,21.431-14.962,350.197,163.965,427.493c0,0,7.368,2.16,7.694-0.984         C1926.788,2771.743,1936.069,2638.45,1888.378,2452.299z"/><circle cx="1865.191" cy="2783.673" r="69.241" fill="#ffe6de"/><path fill="#f5ae9a" d="M3147.448,2453.637c12.562-49.037,61.028-97.871,121.609-82.474         c58.088,14.763,4.039,335.22-149.436,420.034C3119.621,2791.198,3093.974,2662.361,3147.448,2453.637z"/><circle cx="3130.853" cy="2783.673" r="69.241" fill="#ffe6de"/></g><g><path fill="#f5ae9a" d="M2785.717,4296.201c325.001-45.654,622.934-174.874,872.177-364.673      c-148.92-66.985-360.072-130.488-621.755-174.823c-250.15-42.375-505.632-42.578-755.997-1.488      c-269.934,44.319-630.27,114.769-773.804,193.704c-16.888,9.296-33.14,19.506-48.901,30.442      C1834.802,4241.589,2305.737,4369.71,2785.717,4296.201z"/><path fill="#fff" d="M3662.122,3928.266c-168.474-76.248-340.813-113.619-461.003-139.734         c-40.142,99.049-118.975,373.463-361.246,498.778C3145.618,4235.183,3425.941,4109.191,3662.122,3928.266z"/><path fill="#fff" d="M1441.523,3967.852c252.159,179.049,547.158,297.536,859.416,335.381         c-285.823-114.025-406.775-396.94-432.313-469.385C1778.848,3841.218,1609.355,3881.378,1441.523,3967.852z"/><path fill="#f7e4e4" d="M2839.873,4287.31c80.9-13.792,159.987-32.757,236.995-56.556         c124.308-129.035,191.99-291.384,228.986-417.646c-17.832-4.192-86.269-20.57-104.735-24.576         C3160.978,3887.581,3082.144,4161.995,2839.873,4287.31z"/><path fill="#f7e4e4" d="M1868.626,3833.848c-28.601,1.335-79.315,10.547-103.972,16.666         c23.7,55.745,116.949,252.305,288.907,405.07c80.911,21.45,163.49,37.473,247.378,47.648         C2015.116,4189.208,1894.163,3906.292,1868.626,3833.848z"/></g><g><path fill="#e6eded" d="M2529.068,4435.276c-26.027,0-51.968-0.528-78.014-1.588    c-162.703-5.22-325.161-30.893-482.866-76.322c-273.401-78.126-532.572-218.396-749.479-405.669    c-1.583-1.268-3.328-2.73-5.195-4.399c-326.482-282.586-547.471-646.847-639.149-1053.511    c-85.312-378.426-57.259-775.778,81.116-1149.093c138.252-372.948,375.64-691.847,686.524-922.224    c335.355-248.506,743.084-380.505,1179.123-381.722c533.74-0.005,1035.25,207.741,1412.464,584.96    c377.224,377.223,584.964,878.734,584.964,1412.144c0,570.956-245.129,1115.64-672.549,1494.666    c-1.876,1.73-3.809,3.418-5.808,5.059C3481.458,4256.213,3007.635,4435.253,2529.068,4435.276z M1370.578,3764.19l3.819,3.216    c190.965,165.381,419.3,289.205,660.319,358.076c138.902,40.011,281.67,62.568,424.562,67.103l1.132,0.043    c444.119,18.28,889.418-141.128,1221.774-437.354l4.95-4.3c375.102-333.224,590.188-811.655,590.188-1313.121    c0-468.977-182.657-909.904-514.306-1241.563c-331.658-331.654-772.581-514.305-1241.548-514.305    c-896.499,2.508-1434.936,593.923-1639.781,1146.556C676.519,2382.018,697.388,3180.904,1370.578,3764.19z"/><circle cx="3975.86" cy="3961.161" r="477.473" fill="#73e09e"/><path fill="#e6eded" d="M3975.857,4559.252c-329.791,0-598.091-268.3-598.091-598.091s268.3-598.091,598.091-598.091     c329.792,0,598.091,268.3,598.091,598.091S4305.649,4559.252,3975.857,4559.252z M3975.857,3604.305     c-196.773,0-356.855,160.087-356.855,356.855c0,196.768,160.083,356.855,356.855,356.855     c196.773,0,356.854-160.086,356.854-356.855C4332.712,3764.392,4172.631,3604.305,3975.857,3604.305z"/></g></svg>